Coordinates
version=1
nRows=33
nColumns=33
inDegrees=yes

Units are S.I. units (second, meters, Newtons, ...)
Angles are in degrees.

endheader
time	ground_thorax_rot_x	ground_thorax_rot_y	ground_thorax_rot_z	ground_thorax_tx	ground_thorax_ty	ground_thorax_tz	clav_prot_r	clav_elev_r	scapula_abduction_r	scapula_elevation_r	scapula_upward_rot_r	scapula_winging_r	shoulder_elv_r	plane_of_elev_r	axial_rot_r	elbow_flexion_r	pro_sup_r	wrist_flex_r	wrist_dev_r	clav_prot_l	clav_elev_l	scapula_abduction_l	scapula_elevation_l	scapula_upward_rot_l	scapula_winging_l	shoulder_elv_l	plane_of_elev_l	axial_rot_l	elbow_flexion_l	pro_sup_l	wrist_flex_l	wrist_dev_l	
6.0200	-3.913151	5.876085	8.579398	-0.090666	1.027173	0.012063	16.741086	-15.218682	41.354145	-14.968406	22.323771	-10.228257	-0.750350	-54.477344	124.337968	-31.623168	-128.866307	0.337351	6.401629	26.748689	-10.881421	-40.299824	-6.631563	-26.362680	14.165712	56.187231	3.448587	9.788838	14.138490	22.253847	15.292088	-7.701743	
6.0300	-3.960625	5.873359	8.539935	-0.090397	1.027359	0.012083	16.740178	-15.151370	41.337956	-14.902274	22.295566	-10.270799	-0.848610	-54.538882	124.367346	-31.652973	-129.057309	0.353681	6.417834	26.729314	-10.896960	-40.266776	-6.600241	-26.319577	14.144196	56.209022	3.436091	9.799859	14.103605	22.214235	15.221747	-7.701254	
6.0400	-3.977498	5.850608	8.501474	-0.090142	1.027505	0.012104	16.728163	-15.070663	41.312808	-14.827839	22.278304	-10.316419	-0.938609	-54.622559	124.376532	-31.693418	-129.356933	0.360572	6.434052	26.697623	-10.907599	-40.213982	-6.578686	-26.286796	14.110665	56.211291	3.412923	9.786342	14.097019	22.154544	15.131416	-7.712088	
6.0500	-3.953593	5.827230	8.464510	-0.089950	1.027575	0.012167	16.697907	-14.931096	41.279158	-14.709454	22.285366	-10.393131	-1.079497	-54.751568	124.377530	-31.777889	-129.934614	0.362586	6.469249	26.635485	-10.917711	-40.111438	-6.553678	-26.241426	14.046755	56.199425	3.365231	9.745533	14.107063	22.044507	14.957778	-7.740298	
6.0600	-3.889636	5.792170	8.432238	-0.089823	1.027565	0.012251	16.652257	-14.754961	41.231657	-14.563004	22.303981	-10.485476	-1.248620	-54.924038	124.367256	-31.906491	-130.810108	0.363074	6.497623	26.538577	-10.922705	-39.952540	-6.532869	-26.190938	13.949076	56.170943	3.285752	9.664336	14.155448	21.872278	14.727764	-7.786801	
6.0700	-3.790565	5.739262	8.415016	-0.089760	1.027462	0.012352	16.598920	-14.557892	41.159699	-14.393133	22.301800	-10.582789	-1.443596	-55.133210	124.340979	-32.110887	-132.018420	0.376382	6.491396	26.397106	-10.915264	-39.721909	-6.527388	-26.144849	13.809213	56.125519	3.156060	9.533482	14.287786	21.619533	14.462098	-7.859805	
6.0800	-3.684650	5.658334	8.412526	-0.089775	1.027305	0.012436	16.551899	-14.414104	41.052465	-14.252370	22.236521	-10.637299	-1.618445	-55.374270	124.328520	-32.377924	-133.643005	0.426531	6.358836	26.197811	-10.888013	-39.399006	-6.540784	-26.095666	13.617012	56.085868	2.953664	9.327718	14.512988	21.239860	14.250575	-7.943083	
6.0900	-3.572327	5.557502	8.429188	-0.089865	1.027087	0.012499	16.510660	-14.320223	40.899719	-14.133810	22.093707	-10.648332	-1.767642	-55.626768	124.321185	-32.723366	-135.600386	0.521534	6.113820	25.950208	-10.846433	-38.998302	-6.572882	-26.054279	13.379653	56.051614	2.686836	9.049819	14.844021	20.753037	14.097341	-8.038958	
6.1000	-3.477090	5.446636	8.463119	-0.090069	1.026836	0.012540	16.478044	-14.301705	40.691202	-14.053923	21.853518	-10.597101	-1.860658	-55.857470	124.325368	-33.126978	-137.668656	0.672374	5.761974	25.680624	-10.791779	-38.562725	-6.623516	-26.026456	13.123365	56.046298	2.370373	8.725183	15.253090	20.202560	14.051941	-8.131371	
6.1100	-3.396312	5.342487	8.529635	-0.090396	1.026538	0.012577	16.443775	-14.330280	40.406169	-13.985520	21.505899	-10.493626	-1.910144	-56.035828	124.308903	-33.600916	-139.618490	0.881063	5.392172	25.418023	-10.736110	-38.137716	-6.691428	-26.035536	12.872131	56.066987	2.020705	8.371123	15.737180	19.650837	14.091461	-8.228931	
6.1200	-3.330062	5.251294	8.605558	-0.090842	1.026214	0.012605	16.394500	-14.396858	40.051808	-13.931999	21.091565	-10.340956	-1.919224	-56.162673	124.279576	-34.126711	-141.390083	1.128445	5.032351	25.171223	-10.681838	-37.737768	-6.766913	-26.065903	12.635384	56.116548	1.664481	8.025866	16.256738	19.113784	14.195614	-8.322164	
6.1300	-3.260809	5.186028	8.690926	-0.091378	1.025851	0.012645	16.311156	-14.449010	39.626129	-13.858152	20.646965	-10.166838	-1.931245	-56.238529	124.215199	-34.723926	-142.866734	1.381237	4.770824	24.952187	-10.636069	-37.381278	-6.845951	-26.123293	12.422403	56.173621	1.329332	7.735452	16.803646	18.634314	14.283403	-8.422520	
6.1400	-3.193128	5.140866	8.770174	-0.091990	1.025470	0.012690	16.193404	-14.490860	39.145233	-13.774273	20.197328	-9.972384	-1.952783	-56.273117	124.124958	-35.389339	-144.023270	1.611353	4.595683	24.757168	-10.588658	-37.063664	-6.932401	-26.196976	12.233278	56.234924	1.028284	7.544752	17.371363	18.216767	14.341915	-8.525769	
6.1500	-3.145718	5.111757	8.854058	-0.092641	1.025128	0.012725	16.029627	-14.581940	38.564202	-13.722731	19.706814	-9.701952	-1.979568	-56.289427	124.032075	-36.138837	-145.035192	1.796985	4.481752	24.559941	-10.537166	-36.742132	-7.027759	-26.282357	12.042817	56.309211	0.731525	7.412677	17.974942	17.799019	14.374697	-8.628964	
6.1600	-3.111603	5.088801	8.923384	-0.093316	1.024842	0.012735	15.834312	-14.718259	37.925201	-13.707122	19.204722	-9.374528	-2.008610	-56.309711	123.955303	-36.955092	-146.047281	1.930356	4.364897	24.342908	-10.475151	-36.389156	-7.129913	-26.360350	11.836460	56.388108	0.444221	7.346853	18.614573	17.358840	14.378632	-8.728028	
6.1700	-3.086575	5.070162	8.996890	-0.094024	1.024610	0.012733	15.618481	-14.882829	37.240485	-13.709496	18.682206	-9.008861	-2.047945	-56.331842	123.886983	-37.831000	-147.027385	2.018591	4.246906	24.110602	-10.407271	-36.011324	-7.241555	-26.445830	11.616148	56.464610	0.161155	7.343528	19.295997	16.924518	14.350198	-8.827780	
6.1800	-3.053396	5.051432	9.085525	-0.094789	1.024385	0.012738	15.413088	-15.011870	36.574095	-13.677956	18.158089	-8.675525	-2.117318	-56.340846	123.792540	-38.752363	-147.828746	2.086859	4.137815	23.881486	-10.335414	-35.638810	-7.369187	-26.558553	11.398314	56.522159	-0.105458	7.435645	20.033234	16.575730	14.284819	-8.943073	
6.1900	-3.017166	5.030337	9.202965	-0.095604	1.024191	0.012751	15.218409	-15.119894	35.914969	-13.620617	17.615979	-8.361810	-2.219936	-56.345291	123.670483	-39.712363	-148.526778	2.151437	4.043594	23.648411	-10.266342	-35.258890	-7.510294	-26.704415	11.173195	56.569061	-0.376522	7.586909	20.826739	16.307803	14.198667	-9.077121	
6.2000	-2.962562	5.007294	9.335567	-0.096469	1.024002	0.012777	15.052218	-15.163445	35.315477	-13.508291	17.089892	-8.116682	-2.362147	-56.344111	123.495126	-40.694830	-149.013467	2.225657	3.974186	23.423110	-10.195049	-34.891705	-7.669556	-26.885798	10.953977	56.593483	-0.626819	7.835896	21.682511	16.179386	14.095390	-9.238827	
6.2100	-2.896331	4.977170	9.482524	-0.097355	1.023836	0.012814	14.903375	-15.164520	34.754656	-13.359832	16.576124	-7.915726	-2.547772	-56.351978	123.275507	-41.707873	-149.350515	2.306649	3.934906	23.195290	-10.118352	-34.520605	-7.849057	-27.099989	10.731393	56.602847	-0.868263	8.168725	22.598233	16.178664	13.989362	-9.426727	
6.2200	-2.823322	4.943396	9.635764	-0.098247	1.023716	0.012853	14.765245	-15.145048	34.219634	-13.194230	16.072494	-7.738572	-2.768889	-56.384951	123.016902	-42.748486	-149.599643	2.388734	3.930363	22.957614	-10.034877	-34.133758	-8.046378	-27.338225	10.499466	56.607107	-1.104153	8.558827	23.567361	16.301550	13.900982	-9.638703	
6.2300	-2.760257	4.904395	9.786091	-0.099112	1.023685	0.012877	14.612091	-15.161699	33.656120	-13.057501	15.561996	-7.524199	-3.007251	-56.461966	122.751873	-43.826861	-149.918096	2.456323	3.955532	22.693621	-9.941747	-33.704277	-8.258252	-27.585983	10.243599	56.626450	-1.354459	8.952640	24.577509	16.491666	13.850808	-9.863531	
6.2400	-2.712244	4.863427	9.923566	-0.099938	1.023762	0.012876	14.442495	-15.242043	33.056243	-12.971829	15.037135	-7.252312	-3.250714	-56.601401	122.478440	-44.944141	-150.365231	2.495447	4.020728	22.395623	-9.838925	-33.219240	-8.481669	-27.835691	9.957285	56.680169	-1.622512	9.321546	25.626530	16.795508	13.873926	-10.103540	
6.2500	-2.672325	4.815857	10.050108	-0.100736	1.023911	0.012857	14.256655	-15.355578	32.430464	-12.914585	14.512117	-6.946471	-3.501219	-56.790640	122.214623	-46.089835	-150.918060	2.523015	4.109638	22.075365	-9.723386	-32.698308	-8.717211	-28.084383	9.652880	56.751525	-1.909977	9.669207	26.705569	17.167887	13.966122	-10.352456	
6.2600	-2.636091	4.763004	10.166900	-0.101514	1.024101	0.012824	14.058779	-15.479861	31.790936	-12.868104	13.994479	-6.626307	-3.758475	-57.022514	121.973743	-47.252758	-151.556144	2.552565	4.207675	21.744232	-9.594323	-32.160476	-8.963826	-28.329592	9.341752	56.831241	-2.219429	9.987877	27.810712	17.564355	14.122005	-10.604300	
6.2700	-2.591933	4.702426	10.281869	-0.102298	1.024273	0.012790	13.855671	-15.562631	31.162276	-12.791573	13.503031	-6.335015	-4.030172	-57.274455	121.773166	-48.416864	-152.216022	2.616443	4.286947	21.424024	-9.451544	-31.642114	-9.221147	-28.572814	9.044804	56.892452	-2.553943	10.282060	28.937591	17.882029	14.315555	-10.845442	
6.2800	-2.542583	4.636331	10.396190	-0.103087	1.024418	0.012755	13.652551	-15.609977	30.548350	-12.688209	13.031193	-6.071177	-4.316133	-57.551014	121.609680	-49.584236	-152.906659	2.716816	4.345982	21.116841	-9.298864	-31.146449	-9.486392	-28.815338	8.762817	56.945477	-2.923290	10.529860	30.091059	18.101282	14.548862	-11.069954	
6.2900	-2.489728	4.563613	10.515169	-0.103889	1.024533	0.012724	13.453260	-15.623986	29.951783	-12.557802	12.572860	-5.835611	-4.620998	-57.850703	121.477632	-50.753649	-153.662758	2.868346	4.374972	20.824745	-9.149014	-30.675594	-9.747279	-29.054995	8.495491	57.000645	-3.353900	10.707535	31.275983	18.151716	14.840341	-11.256565	
6.3000	-2.437862	4.485276	10.634725	-0.104691	1.024623	0.012690	13.256290	-15.622532	29.366412	-12.415097	12.123647	-5.614520	-4.940443	-58.183038	121.374287	-51.932961	-154.493605	3.059662	4.380295	20.541751	-9.001106	-30.219540	-10.005532	-29.292931	8.236734	57.068333	-3.840278	10.812271	32.491971	18.050118	15.178739	-11.401342	
6.3100	-2.391560	4.401712	10.755078	-0.105489	1.024686	0.012646	13.060504	-15.617981	28.786818	-12.269712	11.678796	-5.397693	-5.272235	-58.552009	121.297879	-53.128981	-155.399505	3.280841	4.367959	20.263557	-8.854379	-29.771142	-10.262889	-29.530779	7.982167	57.155991	-4.378093	10.844025	33.736506	17.816188	15.552035	-11.503064	
6.3200	-2.358170	4.313926	10.870719	-0.106258	1.024755	0.012580	12.855589	-15.651149	28.186253	-12.154066	11.224256	-5.148200	-5.602511	-58.976484	121.246995	-54.352390	-156.428411	3.505320	4.348225	19.971592	-8.709363	-29.299161	-10.519688	-29.768020	7.713972	57.282268	-4.961128	10.799825	35.008664	17.490038	15.950854	-11.550333	
6.3300	-2.334712	4.227511	10.979683	-0.107009	1.024809	0.012493	12.645831	-15.704614	27.574166	-12.053164	10.762900	-4.881033	-5.926622	-59.439888	121.219798	-55.598705	-157.525689	3.732958	4.319519	19.673442	-8.562690	-28.816714	-10.777956	-30.003510	7.440019	57.437932	-5.573191	10.693028	36.303273	17.086857	16.352057	-11.553649	
6.3400	-2.310026	4.143240	11.087594	-0.107754	1.024805	0.012394	12.434311	-15.736111	26.965327	-11.933309	10.308238	-4.628285	-6.245791	-59.918035	121.221903	-56.860479	-158.569527	3.966949	4.276149	19.382849	-8.402883	-28.348428	-11.051112	-30.246003	7.174861	57.589695	-6.181943	10.566204	37.612566	16.623853	16.695142	-11.531083	
